<svg width="24" height="24" viewBox="0 0 24 24" fill="none" xmlns="http://www.w3.org/2000/svg">
<path opacity="0.4" d="M15.0754 2H18.4614C19.8636 2 20.9999 3.14585 20.9999 4.55996V7.97452C20.9999 9.38864 19.8636 10.5345 18.4614 10.5345H15.0754C13.6731 10.5345 12.5369 9.38864 12.5369 7.97452V4.55996C12.5369 3.14585 13.6731 2 15.0754 2Z" fill="#FAC978"/>
<path fill-rule="evenodd" clip-rule="evenodd" d="M3.53852 2H6.92449C8.32676 2 9.46301 3.14585 9.46301 4.55996V7.97452C9.46301 9.38864 8.32676 10.5345 6.92449 10.5345H3.53852C2.13626 10.5345 1 9.38864 1 7.97452V4.55996C1 3.14585 2.13626 2 3.53852 2ZM3.53852 13.4655H6.92449C8.32676 13.4655 9.46301 14.6114 9.46301 16.0255V19.44C9.46301 20.8532 8.32676 22 6.92449 22H3.53852C2.13626 22 1 20.8532 1 19.44V16.0255C1 14.6114 2.13626 13.4655 3.53852 13.4655ZM18.4615 13.4655H15.0755C13.6732 13.4655 12.537 14.6114 12.537 16.0255V19.44C12.537 20.8532 13.6732 22 15.0755 22H18.4615C19.8637 22 21 20.8532 21 19.44V16.0255C21 14.6114 19.8637 13.4655 18.4615 13.4655Z" fill="#FAC978"/>
</svg>
