<svg width="24" height="24" viewBox="0 0 24 24" fill="none" xmlns="http://www.w3.org/2000/svg">
<path opacity="0.4" d="M21.9926 18.9532H16.2983C15.7427 18.9532 15.2909 19.4123 15.2909 19.9766C15.2909 20.5421 15.7427 21 16.2983 21H21.9926C22.5481 21 23 20.5421 23 19.9766C23 19.4123 22.5481 18.9532 21.9926 18.9532Z" fill="white"/>
<path d="M12.309 6.90385L17.7049 11.2639C17.835 11.3682 17.8573 11.5596 17.7557 11.6929L11.3587 20.0282C10.9566 20.5431 10.364 20.8344 9.72908 20.8452L6.23696 20.8882C6.05071 20.8903 5.88775 20.7613 5.84542 20.5764L5.05175 17.1258C4.91419 16.4915 5.05175 15.8358 5.45388 15.3306L11.8826 6.95545C11.9863 6.82108 12.1778 6.79743 12.309 6.90385Z" fill="#D1D1D1"/>
<path opacity="0.4" d="M20.1206 8.66544L19.0804 9.96401C18.9756 10.0962 18.7872 10.1177 18.6571 10.0124C17.3925 8.98901 14.1544 6.36285 13.2559 5.63509C13.1247 5.52759 13.1067 5.33625 13.2125 5.20295L14.2157 3.95706C15.1258 2.78534 16.7131 2.67784 17.9936 3.69906L19.4645 4.87078C20.0677 5.34377 20.4698 5.96726 20.6074 6.62299C20.7661 7.3443 20.5968 8.0527 20.1206 8.66544Z" fill="white"/>
</svg>
