<svg width="26" height="24" viewBox="0 0 26 24" fill="none" xmlns="http://www.w3.org/2000/svg">
<path d="M13.6437 20.7821V17.7152C13.6437 16.9381 14.2757 16.3067 15.0584 16.3018H17.9326C18.7189 16.3018 19.3563 16.9346 19.3563 17.7152V20.7732C19.3562 21.4473 19.904 21.9951 20.5829 22H22.5438C23.4596 22.0023 24.3388 21.6428 24.9872 21.0007C25.6356 20.3586 26 19.4868 26 18.5775V9.86585C26 9.13139 25.6721 8.43471 25.1046 7.9635L18.443 2.67427C17.2785 1.74912 15.6154 1.77901 14.4854 2.74538L7.96701 7.9635C7.37274 8.42082 7.01755 9.11956 7 9.86585V18.5686C7 20.4637 8.54738 22 10.4562 22H12.3723C12.6992 22.0023 13.0135 21.8751 13.2455 21.6464C13.4775 21.4178 13.6079 21.1067 13.6079 20.7821H13.6437Z" fill="#FAC978"/>
</svg>
